<svg width="25" height="24" viewBox="0 0 25 24" fill="none" xmlns="http://www.w3.org/2000/svg">
<g opacity="0.5" clip-path="url(#clip0_59_807)">
<path d="M3.02344 3H21.0234C21.2887 3 21.543 3.10536 21.7305 3.29289C21.9181 3.48043 22.0234 3.73478 22.0234 4V20C22.0234 20.2652 21.9181 20.5196 21.7305 20.7071C21.543 20.8946 21.2887 21 21.0234 21H3.02344C2.75822 21 2.50387 20.8946 2.31633 20.7071C2.12879 20.5196 2.02344 20.2652 2.02344 20V4C2.02344 3.73478 2.12879 3.48043 2.31633 3.29289C2.50387 3.10536 2.75822 3 3.02344 3ZM12.0834 11.683L5.67144 6.238L4.37644 7.762L12.0964 14.317L19.6774 7.757L18.3694 6.244L12.0844 11.683H12.0834Z" fill="#1D1D1D"/>
</g>
<defs>
<clipPath id="clip0_59_807">
<rect width="24" height="24" fill="white" transform="translate(0.0234375)"/>
</clipPath>
</defs>
</svg>
